<?xml version="1.0" encoding="UTF-8"?>
<svg version="1.1" xmlns="http://www.w3.org/2000/svg" width="500" height="500">
<path d="M0 0 C1.28781629 1.30259047 2.55767107 2.62342854 3.80078125 3.96875 C5.5121912 5.87011885 5.5121912 5.87011885 8.41796875 8.12890625 C35.16047261 30.888484 49.17306378 68.36802321 51.95678711 102.46337891 C53.28718494 122.83633676 50.89991704 143.55473633 43.35546875 162.62890625 C43.12520996 163.22590332 42.89495117 163.82290039 42.65771484 164.43798828 C29.11299791 199.13162658 -0.02428465 225.92492336 -33.14453125 241.94140625 C-50.16653647 249.34320551 -68.99427052 254.99529326 -87.64453125 255.62890625 C-88.69253906 255.66886719 -89.74054688 255.70882813 -90.8203125 255.75 C-121.81229982 256.34667473 -152.05893623 246.91433399 -177.64453125 229.62890625 C-178.6809375 228.93796875 -179.71734375 228.24703125 -180.78515625 227.53515625 C-187.43302105 222.90064479 -193.38321458 217.55978247 -199.22753906 211.96972656 C-200.51958836 210.7471327 -201.84233398 209.55718801 -203.16796875 208.37109375 C-228.18102225 185.1389049 -239.86508414 150.53730579 -241.84765625 117.21484375 C-242.25199618 89.51755857 -236.29038978 59.90856828 -220.64453125 36.62890625 C-220.26312988 36.04286621 -219.88172852 35.45682617 -219.48876953 34.85302734 C-213.28115966 25.31982747 -206.73039858 16.67264597 -198.64453125 8.62890625 C-197.85006592 7.83057373 -197.85006592 7.83057373 -197.03955078 7.01611328 C-188.63794341 -1.34624571 -179.7735826 -8.22776565 -169.64453125 -14.37109375 C-169.03544922 -14.74105469 -168.42636719 -15.11101562 -167.79882812 -15.4921875 C-150.6547511 -25.79696962 -132.38516423 -32.94461082 -112.64453125 -36.37109375 C-111.896875 -36.50257812 -111.14921875 -36.6340625 -110.37890625 -36.76953125 C-71.67146604 -42.23584914 -28.6641961 -25.70039444 0 0 Z M-109.64453125 25.62890625 C-109.97453125 26.94890625 -110.30453125 28.26890625 -110.64453125 29.62890625 C-104.64960575 35.09486774 -98.97651226 34.7400382 -91.23046875 34.859375 C-88.55469037 34.62089928 -86.93546811 33.98948612 -84.64453125 32.62890625 C-84.97453125 30.97890625 -85.30453125 29.32890625 -85.64453125 27.62890625 C-91.11512706 25.78357911 -95.83273053 25.37581557 -101.58203125 25.50390625 C-102.36126953 25.51292969 -103.14050781 25.52195313 -103.94335938 25.53125 C-105.84388572 25.55456934 -107.74425133 25.59043039 -109.64453125 25.62890625 Z M-88.64453125 79.62890625 C-90.95453125 81.27890625 -93.26453125 82.92890625 -95.64453125 84.62890625 C-94.65453125 84.95890625 -93.66453125 85.28890625 -92.64453125 85.62890625 C-90.96873073 84.6568359 -90.96873073 84.6568359 -89.45703125 83.19140625 C-88.52890625 82.34578125 -87.60078125 81.50015625 -86.64453125 80.62890625 C-87.30453125 80.29890625 -87.96453125 79.96890625 -88.64453125 79.62890625 Z M-36.64453125 98.62890625 C-37.34152677 100.08272522 -38.02686991 101.54213578 -38.70703125 103.00390625 C-39.08988281 103.81601563 -39.47273437 104.628125 -39.8671875 105.46484375 C-40.25197266 106.53605469 -40.25197266 106.53605469 -40.64453125 107.62890625 C-40.31453125 108.28890625 -39.98453125 108.94890625 -39.64453125 109.62890625 C-38.94487682 108.36472379 -38.26018362 107.09225223 -37.58203125 105.81640625 C-37.19917969 105.10871094 -36.81632813 104.40101563 -36.421875 103.671875 C-35.34189614 101.48192824 -35.34189614 101.48192824 -36.64453125 98.62890625 Z M-5.64453125 116.62890625 C-6.48357527 117.88061673 -7.27350546 119.16529085 -8.04296875 120.4609375 C-8.76226562 121.65879883 -8.76226562 121.65879883 -9.49609375 122.88085938 C-10.50452689 124.57580277 -11.51234844 126.2711102 -12.51953125 127.96679688 C-13.00164062 128.76923828 -13.48375 129.57167969 -13.98046875 130.3984375 C-14.4192334 131.13682861 -14.85799805 131.87521973 -15.31005859 132.63598633 C-16.64453125 134.62890625 -16.64453125 134.62890625 -18.31103516 136.26831055 C-19.8778508 137.54944955 -19.8778508 137.54944955 -19.64453125 139.62890625 C-20.63453125 139.95890625 -21.62453125 140.28890625 -22.64453125 140.62890625 C-23.79820354 141.78257854 -24.94877322 142.93954971 -26.08203125 144.11328125 C-30.98293656 148.8671594 -36.44561302 152.52125073 -42.39453125 155.81640625 C-49.37759499 160.11969483 -51.26665295 166.35285327 -53.26171875 173.9921875 C-53.38804687 174.53230469 -53.514375 175.07242188 -53.64453125 175.62890625 C-40.37786329 176.14504463 -31.28736688 174.73016919 -20.64453125 166.62890625 C-20.01546875 166.16484375 -19.38640625 165.70078125 -18.73828125 165.22265625 C-10.03005531 158.34774104 -5.07400943 148.49625332 -3.109375 137.68359375 C-2.28259894 130.40416317 -3.1135001 123.76528285 -4.64453125 116.62890625 C-4.97453125 116.62890625 -5.30453125 116.62890625 -5.64453125 116.62890625 Z M-184.64453125 117.62890625 C-188.15578066 129.04046682 -187.31847387 139.63546133 -182.64453125 150.62890625 C-176.02131535 162.76002968 -166.05593465 170.07743327 -153.33203125 174.87890625 C-147.81338553 176.00134267 -142.26003796 176.30802015 -136.64453125 176.62890625 C-135.11477322 172.03963217 -137.17642266 168.66359257 -139.06152344 164.45825195 C-142.48573209 157.72843943 -147.36786562 155.13861299 -153.8515625 151.7265625 C-166.53202976 145.01599183 -174.55138703 132.68771473 -181.41796875 120.52734375 C-182.50984409 118.48434439 -182.50984409 118.48434439 -184.64453125 117.62890625 Z " fill="#04334B" transform="translate(345.64453125,141.37109375)"/>
<path d="M0 0 C2.33004983 1.59990336 4.68550233 3.15624164 7.04882812 4.70654297 C8.28415283 5.51853149 8.28415283 5.51853149 9.54443359 6.34692383 C11.16166653 7.40874506 12.78044353 8.46821891 14.40087891 9.52514648 C15.13290527 10.00910889 15.86493164 10.49307129 16.61914062 10.99169922 C17.27253418 11.4203125 17.92592773 11.84892578 18.59912109 12.29052734 C20.12695312 13.46044922 20.12695312 13.46044922 21.12695312 15.46044922 C26.00899862 14.73718322 28.99820007 11.67380717 32.26367188 8.16357422 C35.73614059 4.88533636 39.46328864 2.48108422 43.50195312 -0.03955078 C44.96914833 -0.96497249 46.43530579 -1.89204164 47.90039062 -2.82080078 C48.61549805 -3.27197266 49.33060547 -3.72314453 50.06738281 -4.18798828 C51.99793588 -5.45488512 53.8263613 -6.80171219 55.66601562 -8.19580078 C62.27203751 -12.92892313 68.73447953 -14.10010689 76.75195312 -14.03955078 C77.627146 -14.03455566 78.50233887 -14.02956055 79.40405273 -14.02441406 C87.43800263 -13.8109214 93.83183928 -12.00817095 101.12695312 -8.53955078 C102.10019531 -8.09353516 103.0734375 -7.64751953 104.07617188 -7.18798828 C110.14589387 -4.15736 114.94102243 -0.35233806 119.84960938 4.30810547 C121.77532607 6.12812245 123.73470812 7.76287129 125.81445312 9.39794922 C136.51530044 18.62022512 144.43541419 35.59287777 146.12695312 49.46044922 C147.49637698 70.49178434 144.23844981 92.81750083 130.12695312 109.46044922 C122.72620345 117.65116656 115.24651597 125.70652678 105.12695312 130.46044922 C104.37027344 130.83169922 103.61359375 131.20294922 102.83398438 131.58544922 C81.94552588 141.36455543 60.98337266 141.33883921 39.12695312 134.39794922 C19.2697907 126.91781903 1.90077827 110.26402045 -8.33789062 91.94091797 C-14.50198134 77.96584207 -16.03535784 63.31177111 -15.97070312 48.21044922 C-15.96928818 46.95659424 -15.96787323 45.70273926 -15.96641541 44.41088867 C-15.96178769 41.10326955 -15.9528279 37.79570059 -15.94171143 34.48809814 C-15.93141864 31.10258595 -15.92690105 27.71706636 -15.921875 24.33154297 C-15.91088134 17.70782567 -15.89416981 11.08414154 -15.87304688 4.46044922 C-16.82187744 4.15381348 -17.77070801 3.84717773 -18.74829102 3.53125 C-21.87304688 2.46044922 -21.87304688 2.46044922 -23.86914062 1.32763672 C-29.91456208 -1.28851058 -38.5181061 1.09153793 -44.49804688 3.14794922 C-62.80110227 10.57026383 -74.18275547 22.00884472 -81.87304688 40.08544922 C-87.44127633 54.19936415 -86.88744295 72.55658066 -80.87304688 86.46044922 C-78.79893314 90.66001613 -76.48033241 94.57161656 -73.87304688 98.46044922 C-73.05320313 99.69794922 -73.05320313 99.69794922 -72.21679688 100.96044922 C-64.30001885 112.01406381 -50.26533532 120.23981954 -36.87304688 122.46044922 C-33.55411378 122.69971636 -30.26145467 122.69607736 -26.93554688 122.64794922 C-26.09314453 122.64730469 -25.25074219 122.64666016 -24.3828125 122.64599609 C-20.180696 122.61688212 -16.28894177 122.36678147 -12.15429688 121.60888672 C-9.61344008 121.29740158 -8.32979993 121.22325966 -6.04467773 122.40991211 C-4.32152403 123.80766771 -2.82309522 125.27554003 -1.31054688 126.89794922 C-0.77880859 127.42710937 -0.24707031 127.95626953 0.30078125 128.50146484 C1.59849609 129.79917968 2.86601587 131.12697074 4.12695312 132.46044922 C1.43576303 135.15163932 -1.53961538 135.61849386 -5.12304688 136.52294922 C-5.77917969 136.69632813 -6.4353125 136.86970703 -7.11132812 137.04833984 C-27.03565976 142.21757499 -46.1921046 139.02811414 -64.18945312 129.19482422 C-82.8610351 117.5710129 -95.38598385 99.79739542 -100.77807617 78.63427734 C-105.73448905 57.23602716 -101.20121853 38.2787403 -90.21679688 19.65185547 C-85.95939508 13.21554757 -80.72574174 7.48927296 -74.87304688 2.46044922 C-74.21304688 2.46044922 -73.55304688 2.46044922 -72.87304688 2.46044922 C-72.87304688 1.80044922 -72.87304688 1.14044922 -72.87304688 0.46044922 C-47.74980773 -17.8957239 -24.8991023 -17.32511428 0 0 Z M80.12695312 29.46044922 C79.42995761 30.91426819 78.74461446 32.37367875 78.06445312 33.83544922 C77.68160156 34.64755859 77.29875 35.45966797 76.90429688 36.29638672 C76.51951172 37.36759766 76.51951172 37.36759766 76.12695312 38.46044922 C76.45695313 39.12044922 76.78695312 39.78044922 77.12695312 40.46044922 C77.82660755 39.19626676 78.51130076 37.9237952 79.18945312 36.64794922 C79.57230469 35.94025391 79.95515625 35.23255859 80.34960938 34.50341797 C81.42958824 32.31347121 81.42958824 32.31347121 80.12695312 29.46044922 Z M111.12695312 47.46044922 C110.2879091 48.7121597 109.49797891 49.99683382 108.72851562 51.29248047 C108.00921875 52.4903418 108.00921875 52.4903418 107.27539062 53.71240234 C106.26695748 55.40734574 105.25913593 57.10265317 104.25195312 58.79833984 C103.76984375 59.60078125 103.28773438 60.40322266 102.79101562 61.22998047 C102.35225098 61.96837158 101.91348633 62.7067627 101.46142578 63.4675293 C100.12695312 65.46044922 100.12695312 65.46044922 98.46044922 67.09985352 C96.89363357 68.38099252 96.89363357 68.38099252 97.12695312 70.46044922 C96.13695312 70.79044922 95.14695312 71.12044922 94.12695312 71.46044922 C92.97328084 72.6141215 91.82271116 73.77109268 90.68945312 74.94482422 C85.78854781 79.69870237 80.32587136 83.3527937 74.37695312 86.64794922 C67.39388938 90.9512378 65.50483142 97.18439624 63.50976562 104.82373047 C63.3834375 105.36384766 63.25710938 105.90396484 63.12695312 106.46044922 C76.39362108 106.9765876 85.4841175 105.56171216 96.12695312 97.46044922 C96.75601563 96.99638672 97.38507813 96.53232422 98.03320312 96.05419922 C106.74142906 89.17928401 111.69747494 79.32779629 113.66210938 68.51513672 C114.48888543 61.23570614 113.65798428 54.59682582 112.12695312 47.46044922 C111.79695313 47.46044922 111.46695313 47.46044922 111.12695312 47.46044922 Z " fill="#C3D9E0" transform="translate(228.873046875,210.53955078125)"/>
<path d="M0 0 C16.26186961 7.2150364 27.4637457 19.55158003 33.9921875 36.078125 C39.03856097 50.70869615 38.71252443 66.56835933 33 81 C32.649375 81.886875 32.29875 82.77375 31.9375 83.6875 C25.0499098 98.99325599 12.0689525 109.89390471 -3.1484375 116.33203125 C-20.23479898 122.07483446 -38.72402152 120.17097765 -54.74584961 112.31591797 C-71.96841009 103.41553779 -84.87694329 89.31325683 -91.07373047 70.79052734 C-94.40366344 58.96825246 -94.46642393 47.71570159 -94.25 35.5 C-94.22988015 33.50132022 -94.2116392 31.50262061 -94.1953125 29.50390625 C-94.15180712 24.6687694 -94.0830909 19.8346119 -94 15 C-87.77055381 17.37450995 -82.27140935 19.70309384 -78 25 C-76.18800626 31.00264947 -76.91167633 37.62901345 -77.1875 43.8125 C-77.30312473 47.17330416 -77.38275131 50.53191032 -77.41796875 53.89453125 C-77.42690155 54.69376007 -77.43583435 55.49298889 -77.44503784 56.31643677 C-77.3455051 63.29290936 -75.2215507 68.40204541 -71 74 C-65.55800417 67.469605 -63.41107193 61.60515679 -63.77734375 53.1875 C-63.79695241 51.51825178 -63.81446708 49.84897789 -63.83007812 48.1796875 C-63.87552527 45.58453269 -63.93776548 42.99308576 -64.03735352 40.39941406 C-64.54159871 25.88484654 -64.54159871 25.88484654 -60.62939453 21.1015625 C-57.82564741 19.03637931 -55.15601457 17.45855209 -52 16 C-50.66506366 15.33654902 -49.33142222 14.67047528 -48 14 C-47.90001441 20.27640303 -47.82801105 26.55232742 -47.78027344 32.8293457 C-47.76034183 34.95800874 -47.73318647 37.08661837 -47.69824219 39.21508789 C-47.44915696 54.79390357 -48.23031389 68.23858945 -55.25 82.4375 C-55.77078125 83.50871094 -56.2915625 84.57992187 -56.828125 85.68359375 C-57.21484375 86.44800781 -57.6015625 87.21242188 -58 88 C-54.18504423 91.39717963 -50.51045941 94.53974941 -46 97 C-45.73058594 96.31035156 -45.46117187 95.62070312 -45.18359375 94.91015625 C-44.35859682 92.88169845 -43.49326705 90.86937858 -42.59765625 88.87109375 C-39.24995518 81.38348755 -36.66824004 74.05315873 -35 66 C-34.74205406 64.87220879 -34.74205406 64.87220879 -34.47889709 63.72163391 C-33.95044505 60.71837281 -33.83886911 57.88196881 -33.79467773 54.83276367 C-33.77473251 53.61187546 -33.75478729 52.39098724 -33.73423767 51.13310242 C-33.71752518 49.82460831 -33.70081268 48.5161142 -33.68359375 47.16796875 C-33.6630042 45.80747372 -33.64200722 44.44698481 -33.62062073 43.08650208 C-33.56560653 39.51751677 -33.51610683 35.94847573 -33.46777344 32.37939453 C-33.41740694 28.73269734 -33.3618002 25.08608041 -33.30664062 21.43945312 C-33.19931196 14.29303849 -33.09781157 7.14655175 -33 0 C-31.56063691 -0.65936148 -30.11914312 -1.31407313 -28.67675781 -1.96679688 C-27.87425598 -2.33188354 -27.07175415 -2.69697021 -26.24493408 -3.07312012 C-17.7433883 -6.58320615 -8.09498644 -3.20387051 0 0 Z M-13 25 C-13.69699552 26.45381897 -14.38233866 27.91322953 -15.0625 29.375 C-15.44535156 30.18710938 -15.82820313 30.99921875 -16.22265625 31.8359375 C-16.60744141 32.90714844 -16.60744141 32.90714844 -17 34 C-16.67 34.66 -16.34 35.32 -16 36 C-15.30034557 34.73581754 -14.61565237 33.46334598 -13.9375 32.1875 C-13.55464844 31.47980469 -13.17179687 30.77210938 -12.77734375 30.04296875 C-11.69736489 27.85302199 -11.69736489 27.85302199 -13 25 Z M18 43 C17.16095598 44.25171048 16.37102579 45.5363846 15.6015625 46.83203125 C14.88226563 48.02989258 14.88226563 48.02989258 14.1484375 49.25195312 C13.14000436 50.94689652 12.13218281 52.64220395 11.125 54.33789062 C10.64289063 55.14033203 10.16078125 55.94277344 9.6640625 56.76953125 C9.22529785 57.50792236 8.7865332 58.24631348 8.33447266 59.00708008 C7 61 7 61 5.33349609 62.6394043 C3.76668045 63.9205433 3.76668045 63.9205433 4 66 C3.01 66.33 2.02 66.66 1 67 C-0.15367229 68.15367229 -1.30424197 69.31064346 -2.4375 70.484375 C-7.33840531 75.23825315 -12.80108177 78.89234448 -18.75 82.1875 C-25.73306374 86.49078858 -27.6221217 92.72394702 -29.6171875 100.36328125 C-29.74351562 100.90339844 -29.86984375 101.44351563 -30 102 C-16.73333204 102.51613838 -7.64283563 101.10126294 3 93 C3.6290625 92.5359375 4.258125 92.071875 4.90625 91.59375 C13.61447594 84.71883479 18.57052182 74.86734707 20.53515625 64.0546875 C21.36193231 56.77525692 20.53103115 50.1363766 19 43 C18.67 43 18.34 43 18 43 Z " fill="#04324A" transform="translate(322,215)"/>
<path d="M0 0 C1.25425781 0.00902344 2.50851563 0.01804688 3.80078125 0.02734375 C4.75339844 0.03894531 5.70601563 0.05054688 6.6875 0.0625 C6.6875 4.3525 6.6875 8.6425 6.6875 13.0625 C5.63433594 13.2584375 4.58117187 13.454375 3.49609375 13.65625 C-13.08465532 16.99252584 -28.02018008 23.6262803 -37.87939453 38.0078125 C-48.45608268 54.14129966 -52.23734479 71.09547093 -48.6640625 90.26953125 C-46.55420692 98.30321212 -42.9212927 105.18836852 -38.3125 112.0625 C-37.49265625 113.3 -37.49265625 113.3 -36.65625 114.5625 C-28.73947198 125.61611459 -14.70478845 133.84187032 -1.3125 136.0625 C2.00643309 136.30176714 5.29909221 136.29812814 8.625 136.25 C9.46740234 136.24935547 10.30980469 136.24871094 11.17773438 136.24804688 C15.37985087 136.2189329 19.2716051 135.96883225 23.40625 135.2109375 C25.94710679 134.89945236 27.23074694 134.82531044 29.51586914 136.01196289 C31.23902285 137.40971849 32.73745165 138.87759082 34.25 140.5 C34.78173828 141.02916016 35.31347656 141.55832031 35.86132812 142.10351562 C37.15904296 143.40123046 38.42656275 144.72902152 39.6875 146.0625 C36.9963099 148.7536901 34.02093149 149.22054464 30.4375 150.125 C29.78136719 150.29837891 29.12523437 150.47175781 28.44921875 150.65039062 C8.52488711 155.81962577 -10.63155772 152.63016492 -28.62890625 142.796875 C-47.30048822 131.17306368 -59.82543698 113.3994462 -65.2175293 92.23632812 C-70.17394217 70.83807794 -65.64067165 51.88079108 -54.65625 33.25390625 C-50.3988482 26.81759835 -45.16519486 21.09132374 -39.3125 16.0625 C-38.6525 16.0625 -37.9925 16.0625 -37.3125 16.0625 C-37.3125 15.4025 -37.3125 14.7425 -37.3125 14.0625 C-26.19255175 5.93776362 -13.93565338 -0.13023975 0 0 Z " fill="#DFECEF" transform="translate(193.3125,196.9375)"/>
<path d="M0 0 C0.88816406 0.495 1.77632813 0.99 2.69140625 1.5 C8.90516383 5.30390029 13.36882623 10.43930112 18 16 C19.07314453 17.24523437 19.07314453 17.24523437 20.16796875 18.515625 C26.42908901 25.98668032 34 36.84355918 34 47 C18.50540541 46.6027027 18.50540541 46.6027027 14.49121094 42.43261719 C12.02356844 38.5270398 10.48093073 34.21466968 8.83007812 29.91748047 C3.71331661 18.09776136 -10.79860846 10.74513377 -22 6 C-35.62705426 0.87298949 -51.15184386 1.27312373 -64.64453125 6.46484375 C-69.85455305 8.84847421 -74.44310156 11.52586314 -79 15 C-79.98742187 15.74636719 -80.97484375 16.49273437 -81.9921875 17.26171875 C-88.58526695 22.73917534 -92.15408751 27.84539173 -95.875 35.5625 C-99.72731732 43.45202038 -99.72731732 43.45202038 -104.62890625 45.5625 C-108.1625675 46.0264063 -111.44492377 46.11557465 -115 46 C-116.485 46.495 -116.485 46.495 -118 47 C-116.24525996 28.35588708 -102.52043264 13.8873195 -88.81518555 2.38208008 C-61.88070703 -18.12579926 -28.30682873 -15.85762566 0 0 Z " fill="#F4F9FA" transform="translate(293,135)"/>
<path d="M0 0 C16.72553617 -0.85334368 31.6490161 4.1894783 44.25 15.5 C45.06597656 16.27472656 45.88195312 17.04945313 46.72265625 17.84765625 C48.64837294 19.66767323 50.60775499 21.30242208 52.6875 22.9375 C63.38834731 32.15977591 71.30846107 49.13242855 73 63 C73.97876132 78.03161886 73.80447432 94.5717133 66 108 C64.515 108.495 64.515 108.495 63 109 C62.01 108.505 62.01 108.505 61 108 C60.34 110.31 59.68 112.62 59 115 C58.34 115 57.68 115 57 115 C57 115.66 57 116.32 57 117 C55.125 119.125 55.125 119.125 53 121 C52.34 121 51.68 121 51 121 C51.33 121.99 51.66 122.98 52 124 C51.34 124.99 50.68 125.98 50 127 C49.01 126.67 48.02 126.34 47 126 C46.67 126.66 46.34 127.32 46 128 C45.34 128 44.68 128 44 128 C42.875 124.25 42.875 124.25 44 122 C38.92314776 124.39534156 34.05542854 126.85605845 29.4375 130.0625 C18.6198688 137.46605611 18.6198688 137.46605611 13.73828125 136.59765625 C13.16464844 136.40042969 12.59101563 136.20320312 12 136 C12.66 136 13.32 136 14 136 C14 135.34 14 134.68 14 134 C14.75023437 133.72027344 15.50046875 133.44054687 16.2734375 133.15234375 C31.74391067 127.09275035 43.67567871 117.16223829 51 102 C57.29468998 85.87994457 58.77053629 68.42882231 52.4140625 52.09375 C50.57895295 48.0788142 48.67136635 44.51342748 46 41 C45.401875 40.19046875 44.80375 39.3809375 44.1875 38.546875 C32.50686208 23.30729271 18.29798256 17.17868822 0 13 C0 8.71 0 4.42 0 0 Z " fill="#E1EDF0" transform="translate(302,197)"/>
<path d="M0 0 C5.52520696 4.69554329 10.01738738 9.96184539 14 16 C11.45034487 18.54965513 9.24461862 19.01586336 5.8125 20.125 C-6.13866023 24.19713162 -16.92666302 30.4153698 -27 38 C-30.3164748 36.48485923 -33.28241228 34.55361896 -36.33032227 32.57226562 C-46.35052081 26.09233783 -56.43871153 21.14910254 -68 18 C-67.10583336 11.64990135 -61.50893542 6.29568483 -57 2 C-40.02102539 -10.34641332 -17.81876692 -11.8012817 0 0 Z M-42 4 C-42.33 5.32 -42.66 6.64 -43 8 C-37.0050745 13.46596149 -31.33198101 13.11113195 -23.5859375 13.23046875 C-20.91015912 12.99199303 -19.29093686 12.36057987 -17 11 C-17.33 9.35 -17.66 7.7 -18 6 C-23.47059581 4.15467286 -28.18819928 3.74690932 -33.9375 3.875 C-34.71673828 3.88402344 -35.49597656 3.89304688 -36.29882812 3.90234375 C-38.19935447 3.92566309 -40.09972008 3.96152414 -42 4 Z " fill="#96B5C0" transform="translate(278,163)"/>
<path d="M0 0 C1.32 0.66 2.64 1.32 4 2 C0.42533306 9.43674429 -4.30888315 15.0760224 -10 21 C-10.73605469 21.79921875 -11.47210938 22.5984375 -12.23046875 23.421875 C-25.19626886 37.09907299 -43.77387866 43.97072839 -62.3515625 45.2265625 C-85.93339557 45.81211592 -106.65239296 36.95936615 -123.77734375 21.1796875 C-124.18082031 20.79039062 -124.58429688 20.40109375 -125 20 C-122.63707344 17.47411298 -121.33537489 16.11179163 -118 15 C-118 13.35 -118 11.7 -118 10 C-118.99 10 -119.98 10 -121 10 C-120.67 8.68 -120.34 7.36 -120 6 C-116.72899303 8.74312112 -113.53081005 11.42728389 -110.625 14.5625 C-107.10965126 17.82675241 -103.24581468 19.81971679 -99 22 C-98.360625 22.350625 -97.72125 22.70125 -97.0625 23.0625 C-87.31213275 28.26269586 -77.04864832 31.14922949 -66 31.125 C-64.824375 31.12757813 -63.64875 31.13015625 -62.4375 31.1328125 C-59.20274496 31.00783333 -56.17531283 30.6098924 -53 30 C-53.99 29.01 -53.99 29.01 -55 28 C-47.25 26.875 -47.25 26.875 -45 28 C-42.36395022 26.87154381 -39.85755732 25.6830998 -37.3125 24.375 C-36.61705078 24.03082031 -35.92160156 23.68664062 -35.20507812 23.33203125 C-31.65709507 21.53650668 -28.37431469 19.62905483 -25.1640625 17.27734375 C-22.20895129 15.15039333 -20.56228145 14.32384377 -17 14 C-17 15.98 -17 17.96 -17 20 C-16.34 20 -15.68 20 -15 20 C-14.34 18.68 -13.68 17.36 -13 16 C-13 16.99 -13 17.98 -13 19 C-10.65712582 16.32752366 -10.65712582 16.32752366 -10 13 C-9.34 13 -8.68 13 -8 13 C-7.34 11.68 -6.68 10.36 -6 9 C-5.34 9 -4.68 9 -4 9 C-4 8.34 -4 7.68 -4 7 C-3.34 6.67 -2.68 6.34 -2 6 C-2 4.68 -2 3.36 -2 2 C-1.34 2 -0.68 2 0 2 C0 1.34 0 0.68 0 0 Z " fill="#B0CCD5" transform="translate(363,305)"/>
<path d="M0 0 C0 1.65 0 3.3 0 5 C-6.75 9 -6.75 9 -9 9 C-9.33 10.32 -9.66 11.64 -10 13 C-12.49064888 13.68707555 -14.37886292 14 -17 14 C-17.66 14.33 -18.32 14.66 -19 15 C-19.05749557 17.91630113 -19.05749557 17.91630113 -18 21 C-15.72555566 22.4926041 -13.62038301 23.14242011 -11 24 C-11 23.34 -11 22.68 -11 22 C-10.34 22 -9.68 22 -9 22 C-10.875 26.75 -10.875 26.75 -12 29 C-13.32 29 -14.64 29 -16 29 C-18.84008934 30.48540948 -18.84008934 30.48540948 -21.6875 32.4375 C-22.66074219 33.07558594 -23.63398438 33.71367187 -24.63671875 34.37109375 C-26.85580506 35.79549923 -26.85580506 35.79549923 -28 37 C-28.07376862 39.65796376 -28.08807079 42.29538108 -28.0703125 44.953125 C-28.07891277 46.62240618 -28.08939461 48.29167851 -28.1015625 49.9609375 C-28.11810675 52.5875807 -28.12536998 55.21227654 -28.09960938 57.83886719 C-27.999652 69.74742511 -29.06537267 78.06630995 -36 88 C-40.31684307 84.2998488 -43.50379657 79.59676053 -44.29147339 73.88723755 C-44.34170396 71.65272561 -44.26824434 69.45457248 -44.15234375 67.22265625 C-44.12299284 65.55798745 -44.09638406 63.89326845 -44.07226562 62.22851562 C-44.01457413 59.64123603 -43.93736776 57.05977833 -43.81176758 54.47485352 C-43.05874705 44.94330326 -43.05874705 44.94330326 -46.24591064 36.29705811 C-50.3122621 32.36447773 -55.18862076 29.19898372 -60.92163086 28.79321289 C-61.60749268 28.86145264 -62.29335449 28.92969238 -63 29 C-62.484375 28.21625 -61.96875 27.4325 -61.4375 26.625 C-60.963125 25.75875 -60.48875 24.8925 -60 24 C-60.33 23.34 -60.66 22.68 -61 22 C-59.35 21.67 -57.7 21.34 -56 21 C-56 20.34 -56 19.68 -56 19 C-52.66625743 17.77177905 -50.63011886 17.72057229 -47.375 19.1640625 C-42.30028035 22.09067639 -42.30028035 22.09067639 -40 24 C-40 24.99 -40 25.98 -40 27 C-38.35 26.67 -36.7 26.34 -35 26 C-34.67 25.01 -34.34 24.02 -34 23 C-32.3603279 21.63360658 -30.68889872 20.3050581 -29 19 C-28.29488281 18.2471875 -27.58976562 17.494375 -26.86328125 16.71875 C-23.34369601 13.37682459 -19.54064827 10.93902741 -15.4375 8.375 C-13.93538891 7.42575815 -12.43406094 6.47527572 -10.93359375 5.5234375 C-10.27415771 5.11013184 -9.61472168 4.69682617 -8.93530273 4.27099609 C-6.93236336 3.00024629 -6.93236336 3.00024629 -4.94165039 1.34228516 C-3 0 -3 0 0 0 Z " fill="#C4D9E1" transform="translate(288,202)"/>
<path d="M0 0 C0.78375 0.66 1.5675 1.32 2.375 2 C4.71512812 4.20201441 4.71512812 4.20201441 7 4 C8.68933922 5.6436814 10.35259924 7.3142876 12 9 C15.83988593 12.32428288 19.85476658 14.7541529 24.3125 17.125 C24.93833984 17.47175781 25.56417969 17.81851562 26.20898438 18.17578125 C34.03719188 22.36688311 41.1265899 23.31499984 49.9375 23.1875 C50.77990234 23.18685547 51.62230469 23.18621094 52.49023438 23.18554688 C56.69235087 23.1564329 60.5841051 22.90633225 64.71875 22.1484375 C67.25960679 21.83695236 68.54324694 21.76281044 70.82836914 22.94946289 C72.55152285 24.34721849 74.04995165 25.81509082 75.5625 27.4375 C76.36010742 28.23124023 76.36010742 28.23124023 77.17382812 29.04101562 C78.47154296 30.33873046 79.73906275 31.66652152 81 33 C78.3088099 35.6911901 75.33343149 36.15804464 71.75 37.0625 C71.09386719 37.23587891 70.43773437 37.40925781 69.76171875 37.58789062 C49.83738711 42.75712577 30.68094228 39.56766492 12.68359375 29.734375 C5.1802201 25.06322289 -3.08202551 18.37696173 -8 11 C-5.36 10.67 -2.72 10.34 0 10 C0 6.7 0 3.4 0 0 Z " fill="#AFCCD5" transform="translate(152,310)"/>
<path d="M0 0 C0.79148437 0.41636719 1.58296875 0.83273437 2.3984375 1.26171875 C15.93666571 7.5310996 31.05621922 8.59755284 45.7734375 8.94921875 C31.31514305 21.94187787 3.63940662 22.89173076 -14.61523438 22.11328125 C-29.59053927 21.1724244 -44.95446613 16.97193431 -58.2265625 9.94921875 C-58.2265625 9.61921875 -58.2265625 9.28921875 -58.2265625 8.94921875 C-57.21980469 8.9234375 -56.21304688 8.89765625 -55.17578125 8.87109375 C-39.39859223 8.30314534 -24.72743007 5.61646743 -10.328125 -0.9765625 C-6.12800185 -2.4312651 -3.93081851 -1.85507049 0 0 Z " fill="#92B3BF" transform="translate(257.2265625,358.05078125)"/>
<path d="M0 0 C0.07476562 0.64324219 0.14953125 1.28648437 0.2265625 1.94921875 C1.48286464 10.58321682 4.35495053 19.23147637 9.7109375 26.23828125 C11.72445817 30.55209675 11.05996156 34.64849014 10.6875 39.3125 C10.62626953 40.24384766 10.56503906 41.17519531 10.50195312 42.13476562 C10.34929686 44.42460961 10.1815537 46.71229615 10 49 C-0.8783005 41.43211831 -10.61687719 29.90989029 -14.3125 16.9375 C-15.03507461 12.79911814 -15.14947672 9.18534807 -15 5 C-13.730447 4.35165346 -12.45930294 3.70642185 -11.1875 3.0625 C-10.47980469 2.70285156 -9.77210938 2.34320313 -9.04296875 1.97265625 C-5.75434298 0.40694341 -3.71199411 0 0 0 Z " fill="#BBD5DE" transform="translate(192,231)"/>
<path d="M0 0 C1.77734375 2.16015625 1.77734375 2.16015625 3 4 C2.41476562 4.17273438 1.82953125 4.34546875 1.2265625 4.5234375 C-6.35907319 7.00642336 -12.95284893 10.64239654 -19.71630859 14.82177734 C-25.33556343 18.14296842 -25.33556343 18.14296842 -28.83203125 17.390625 C-29.54746094 16.93171875 -30.26289063 16.4728125 -31 16 C-32.093125 15.46375 -33.18625 14.9275 -34.3125 14.375 C-35.199375 13.92125 -36.08625 13.4675 -37 13 C-37 12.67 -37 12.34 -37 12 C-35.87980469 12.01160156 -34.75960937 12.02320313 -33.60546875 12.03515625 C-32.13281417 12.04453622 -30.66015778 12.0536362 -29.1875 12.0625 C-28.44951172 12.07087891 -27.71152344 12.07925781 -26.95117188 12.08789062 C-23.70077932 12.10259828 -21.10595105 12.03531702 -18 11 C-18 9.68 -18 8.36 -18 7 C-23.47059581 5.15467286 -28.18819928 4.74690932 -33.9375 4.875 C-34.71673828 4.88402344 -35.49597656 4.89304688 -36.29882812 4.90234375 C-38.19935447 4.92566309 -40.09972008 4.96152414 -42 5 C-42 6.32 -42 7.64 -42 9 C-46.72065967 7.45730076 -51.41664092 5.92205381 -56 4 C-54.11251116 -1.19059432 -49.96008641 -2.43503076 -45.2265625 -4.671875 C-30.54469612 -10.71525825 -13.2440619 -8.87125968 0 0 Z " fill="#F3FAFB" transform="translate(278,163)"/>
<path d="M0 0 C5.77378925 0.4811491 9.95859836 2.18467181 15 5 C14.36215112 19.70241662 7.84849095 33.8779705 -3 44 C-5.29806072 45.71840447 -7.63838435 47.37032345 -10 49 C-10.31734575 45.69027848 -10.57008397 42.37848445 -10.8125 39.0625 C-10.90208984 38.13630859 -10.99167969 37.21011719 -11.08398438 36.25585938 C-11.55645027 29.16887098 -10.04850071 24.81270204 -6 19 C-5.34 19 -4.68 19 -4 19 C-1.28828716 13.57657431 -0.80204459 10.03763995 -1 4 C-0.5 1.5 -0.5 1.5 0 0 Z " fill="#B6D2DC" transform="translate(310,231)"/>
<path d="M0 0 C19.72496329 13.05814609 36.32559066 37.97624715 42 61 C41.67 61.99 41.34 62.98 41 64 C40.56429687 63.43152344 40.12859375 62.86304688 39.6796875 62.27734375 C39.08414063 61.50519531 38.48859375 60.73304688 37.875 59.9375 C37.29492188 59.18339844 36.71484375 58.42929688 36.1171875 57.65234375 C35.41851562 56.77707031 34.71984375 55.90179688 34 55 C33.57396484 54.44940918 33.14792969 53.89881836 32.70898438 53.33154297 C28.93716608 48.65269218 24.78399272 45.48613818 19.75 42.25 C18.32477508 41.32283755 16.90274678 40.3907378 15.484375 39.453125 C14.86272461 39.05254883 14.24107422 38.65197266 13.60058594 38.23925781 C11.10665464 36.30832504 10.08399631 34.51253306 9.578125 31.42578125 C9.41570312 29.88470703 9.41570312 29.88470703 9.25 28.3125 C8.09683292 20.02643655 5.1336984 12.69799825 2 5 C1.33333333 3.33333333 0.66666667 1.66666667 0 0 Z " fill="#92B4C1" transform="translate(332,153)"/>
<path d="M0 0 C0 3 0 3 -1.6875 6.1875 C-3.81426333 10.289115 -5.29168089 14.54457972 -6.6875 18.9375 C-6.90172607 19.59322998 -7.11595215 20.24895996 -7.33666992 20.92456055 C-8.47695882 24.60629844 -9.05211474 27.79376163 -9.16796875 31.65234375 C-9.42468835 34.34284601 -9.64292307 35.60162318 -11.46069336 37.62963867 C-13.45068094 39.11294381 -15.47873681 40.37905889 -17.625 41.625 C-19.09829677 42.55739262 -20.56840949 43.49483711 -22.03515625 44.4375 C-22.73141113 44.87835938 -23.42766602 45.31921875 -24.14501953 45.7734375 C-30.74550087 50.13785159 -35.32705408 56.73626398 -40 63 C-42.08863751 56.73408747 -37.12694665 48.39305621 -34.38671875 42.57421875 C-26.03199371 26.53698792 -14.06491323 11.43662137 0 0 Z " fill="#95B6C2" transform="translate(169,153)"/>
<path d="M0 0 C5.69701401 0.59343896 9.37505608 1.89064603 15 4 C14.67 27.43 14.34 50.86 14 75 C13.67 75 13.34 75 13 75 C13 56.19 13 37.38 13 18 C11.02 17.34 9.04 16.68 7 16 C4.64086252 15.05112182 2.32816805 14.02439394 0 13 C0 8.71 0 4.42 0 0 Z " fill="#5D899E" transform="translate(200,197)"/>
<path d="M0 0 C0 1.65 0 3.3 0 5 C-6.75 9 -6.75 9 -9 9 C-9.33 10.32 -9.66 11.64 -10 13 C-12.49064888 13.68707555 -14.37886292 14 -17 14 C-17.99 14.495 -17.99 14.495 -19 15 C-19.05749557 17.91630113 -19.05749557 17.91630113 -18 21 C-15.72555566 22.4926041 -13.62038301 23.14242011 -11 24 C-11 23.34 -11 22.68 -11 22 C-10.34 22 -9.68 22 -9 22 C-10.875 26.75 -10.875 26.75 -12 29 C-14.375 28.6875 -14.375 28.6875 -17 28 C-17.66 27.01 -18.32 26.02 -19 25 C-19.99 25.66 -20.98 26.32 -22 27 C-22.33 25.02 -22.66 23.04 -23 21 C-27.40114397 21.50298788 -29.71195019 23.08772731 -33 26 C-33.66 25.34 -34.32 24.68 -35 24 C-33.60026042 22.86067708 -32.20052083 21.72135417 -30.80078125 20.58203125 C-28.87446164 18.94197769 -28.87446164 18.94197769 -26.828125 16.67578125 C-23.32015481 13.3567763 -19.5207143 10.92657083 -15.4375 8.375 C-13.93538891 7.42575815 -12.43406094 6.47527572 -10.93359375 5.5234375 C-10.27415771 5.11013184 -9.61472168 4.69682617 -8.93530273 4.27099609 C-6.93236336 3.00024629 -6.93236336 3.00024629 -4.94165039 1.34228516 C-3 0 -3 0 0 0 Z " fill="#D6E5E9" transform="translate(288,202)"/>
<path d="M0 0 C4.43051988 1.77220795 7.98655051 3.83631522 11.875 6.5 C13.19770613 7.39614416 14.52062963 8.29196755 15.84375 9.1875 C16.86275391 9.87972656 16.86275391 9.87972656 17.90234375 10.5859375 C20.01777828 12.01198462 22.14659566 13.41541361 24.28125 14.8125 C24.96719238 15.26302734 25.65313477 15.71355469 26.35986328 16.17773438 C27.68429212 17.04678049 29.01073721 17.91276301 30.33935547 18.77539062 C34.88792539 21.77585079 34.88792539 21.77585079 36 24 C36.99 24.66 37.98 25.32 39 26 C37.35 26.33 35.7 26.66 34 27 C34 26.01 34 25.02 34 24 C33.42765625 23.71382812 32.8553125 23.42765625 32.265625 23.1328125 C28.84375 21.421875 25.421875 19.7109375 22 18 C22 17.34 22 16.68 22 16 C20.700625 15.87625 19.40125 15.7525 18.0625 15.625 C15.84765625 15.4140625 15.84765625 15.4140625 14 15 C13.67 14.34 13.34 13.68 13 13 C13.33 12.34 13.66 11.68 14 11 C13.071875 10.731875 12.14375 10.46375 11.1875 10.1875 C8.10338641 9.03851651 7.21289091 8.21289091 5 6 C3.68 6 2.36 6 1 6 C1.16749756 6.86568604 1.33499512 7.73137207 1.50756836 8.62329102 C2.37129896 14.72125 2.00676115 20.88799876 1.87890625 27.02734375 C1.85456798 28.38496549 1.83072636 29.74259621 1.80735779 31.10023499 C1.74488521 34.6529066 1.67571681 38.2054167 1.60510254 41.75793457 C1.53408385 45.39128336 1.46946843 49.02474558 1.40429688 52.65820312 C1.27576018 59.77225855 1.14014184 66.88616295 1 74 C0.67 74 0.34 74 0 74 C0 49.58 0 25.16 0 0 Z " fill="#DBF1F8" transform="translate(214,202)"/>
<path d="M0 0 C-0.66 0 -1.32 0 -2 0 C-1.34 3.63 -0.68 7.26 0 11 C-3.96 13.97 -7.92 16.94 -12 20 C-14.8733996 14.2532008 -15.10574118 10.34447099 -15 4 C-13.730447 3.35165346 -12.45930294 2.70642185 -11.1875 2.0625 C-10.47980469 1.70285156 -9.77210938 1.34320313 -9.04296875 0.97265625 C-5.54717095 -0.69169108 -3.67208522 -1.13961265 0 0 Z " fill="#6793A7" transform="translate(192,232)"/>
<path d="M0 0 C0 4.29 0 8.58 0 13 C0.66 13.33 1.32 13.66 2 14 C0.14453125 14.45572917 -1.7109375 14.91145833 -3.56640625 15.3671875 C-6.72603165 16.18879154 -9.8609128 17.10311794 -13 18 C-13.33 13.05 -13.66 8.1 -14 3 C-8.59302137 0.76262953 -6.1035192 0 0 0 Z " fill="#6793A8" transform="translate(302,197)"/>
<path d="M0 0 C1.60597325 0.45196245 3.20972508 0.91182327 4.8125 1.375 C6.15248047 1.75785156 6.15248047 1.75785156 7.51953125 2.1484375 C10 3 10 3 13 5 C12.22095672 15.55808656 12.22095672 15.55808656 10 20 C8.72689688 19.06558465 7.456612 18.12732889 6.1875 17.1875 C5.47980469 16.66542969 4.77210938 16.14335937 4.04296875 15.60546875 C3.03169922 14.81076172 3.03169922 14.81076172 2 14 C1.4121875 13.5565625 0.824375 13.113125 0.21875 12.65625 C-1.61711287 10.16135944 -1.07647279 8.31819882 -0.6875 5.3125 C-0.56761719 4.31863281 -0.44773437 3.32476562 -0.32421875 2.30078125 C-0.21722656 1.54152344 -0.11023438 0.78226563 0 0 Z " fill="#6591A7" transform="translate(312,231)"/>
<path d="M0 0 C2.71506191 1.06663146 3.96845557 1.95891565 5.76953125 4.3046875 C15.39846144 15.94034744 33.47195746 23.81718934 48.2265625 25.33105469 C51.54825372 25.51200665 54.86165284 25.61930747 58.1875 25.6875 C59.90163086 25.73874023 59.90163086 25.73874023 61.65039062 25.79101562 C64.43349538 25.87252915 67.21632336 25.9419867 70 26 C66.23009906 29.76990094 60.46891534 29.1797391 55.375 29.25 C41.50266356 29.11899158 26.93381667 24.6559382 16 16 C15.23300781 15.57074219 14.46601563 15.14148438 13.67578125 14.69921875 C10.44465563 12.64733606 7.8565039 10.14926498 5.1875 7.4375 C4.68541016 6.94314453 4.18332031 6.44878906 3.66601562 5.93945312 C0 2.25348639 0 2.25348639 0 0 Z " fill="#DFEDF1" transform="translate(242,308)"/>
<path d="M0 0 C0.41507813 0.3403125 0.83015625 0.680625 1.2578125 1.03125 C11.5054382 9.09214386 24.96759763 18.11279525 38.44921875 18.1328125 C39.29806641 18.13410156 40.14691406 18.13539063 41.02148438 18.13671875 C41.90126953 18.13285156 42.78105469 18.12898438 43.6875 18.125 C44.54794922 18.12886719 45.40839844 18.13273437 46.29492188 18.13671875 C51.93869124 18.12821269 57.40148067 17.7147046 63 17 C63 17.66 63 18.32 63 19 C58.0253195 20.55458766 53.21085156 21.60412258 48 22 C47.18789062 22.06574219 46.37578125 22.13148438 45.5390625 22.19921875 C29.95918507 22.86170621 14.86127635 15.72842299 3 6 C0 2.48796499 0 2.48796499 0 0 Z " fill="#DEEEF3" transform="translate(158,315)"/>
<path d="M0 0 C0.66 0 1.32 0 2 0 C2 0.66 2 1.32 2 2 C2.66 2.33 3.32 2.66 4 3 C3.01 3 2.02 3 1 3 C0.66574265 5.37374861 0.66574265 5.37374861 1 8 C2.9004467 9.84315671 2.9004467 9.84315671 5 11 C4.34 11.99 3.68 12.98 3 14 C2.01 13.67 1.02 13.34 0 13 C-0.33 13.66 -0.66 14.32 -1 15 C-1.66 15 -2.32 15 -3 15 C-4.125 11.25 -4.125 11.25 -3 9 C-8.07685224 11.39534156 -12.94457146 13.85605845 -17.5625 17.0625 C-28.3801312 24.46605611 -28.3801312 24.46605611 -33.26171875 23.59765625 C-33.83535156 23.40042969 -34.40898437 23.20320313 -35 23 C-34.34 23 -33.68 23 -33 23 C-33 22.34 -33 21.68 -33 21 C-32.24976563 20.72027344 -31.49953125 20.44054687 -30.7265625 20.15234375 C-21.91465948 16.7008301 -14.69898898 12.25213295 -7.5625 6.0625 C-5 4 -5 4 -2 4 C-1.34 2.68 -0.68 1.36 0 0 Z " fill="#B9D3DB" transform="translate(349,310)"/>
<path d="M0 0 C2.87788151 2.57494662 5.3936882 5.33897495 7.625 8.5 C4.66399847 10.02162579 1.94726496 11.11824906 -1.375 11.5 C-4.60369453 10.09173962 -6.88544114 7.95708635 -9.375 5.5 C-9.90609375 4.99726563 -10.4371875 4.49453125 -10.984375 3.9765625 C-12.14518324 2.84836124 -13.26557388 1.67876526 -14.375 0.5 C-9.04614731 -1.92419118 -5.03213465 -3.74086991 0 0 Z " fill="#6895A9" transform="translate(225.375,335.5)"/>
<path d="M0 0 C0 1.65 0 3.3 0 5 C-6.75 9 -6.75 9 -9 9 C-9.33 10.32 -9.66 11.64 -10 13 C-12.49064888 13.68707555 -14.37886292 14 -17 14 C-18.33981486 14.3062434 -19.67511887 14.63451555 -21 15 C-18.8333801 10.7543004 -16.63825526 8.79722633 -12.5625 6.375 C-8.58723931 3.99743731 -8.58723931 3.99743731 -4.83984375 1.2890625 C-3 0 -3 0 0 0 Z " fill="#E6F4F7" transform="translate(288,202)"/>
<path d="M0 0 C0.99 0.33 1.98 0.66 3 1 C2.67 7.6 2.34 14.2 2 21 C-0.64 19.02 -3.28 17.04 -6 15 C-5.19093245 12.68624595 -4.37793083 10.37401052 -3.5625 8.0625 C-3.33240234 7.40314453 -3.10230469 6.74378906 -2.86523438 6.06445312 C-1.11328125 1.11328125 -1.11328125 1.11328125 0 0 Z " fill="#6290A7" transform="translate(200,259)"/>
<path d="M0 0 C0.99 0.33 1.98 0.66 3 1 C3.04934399 6.94481181 3.08569282 12.88950509 3.10986328 18.83447266 C3.11993671 20.85793127 3.13359595 22.88137528 3.15087891 24.90478516 C3.17506847 27.80895589 3.18646949 30.71293461 3.1953125 33.6171875 C3.20563507 34.52556366 3.21595764 35.43393982 3.22659302 36.36984253 C3.22674408 37.21056305 3.22689514 38.05128357 3.22705078 38.91748047 C3.231492 39.65916473 3.23593323 40.400849 3.24050903 41.16500854 C3 43 3 43 1 45 C-0.15410254 42.69179492 -0.1210297 41.39215724 -0.11352539 38.82568359 C-0.11344986 37.96494232 -0.11337433 37.10420105 -0.11329651 36.21737671 C-0.10813522 35.28712677 -0.10297394 34.35687683 -0.09765625 33.3984375 C-0.0962413 32.44683746 -0.09482635 31.49523743 -0.09336853 30.51480103 C-0.08776012 27.46816903 -0.07520619 24.42160987 -0.0625 21.375 C-0.05748608 19.31250106 -0.05292299 17.25000097 -0.04882812 15.1875 C-0.03778796 10.12497183 -0.02051767 5.06249827 0 0 Z " fill="#2C4C5B" transform="translate(228,230)"/>
<path d="M0 0 C0.66 0 1.32 0 2 0 C2.84114171 1.43294498 3.67265687 2.87154405 4.5 4.3125 C5.19609375 5.51326172 5.19609375 5.51326172 5.90625 6.73828125 C7 9 7 9 7 12 C7.66 12.33 8.32 12.66 9 13 C6.36 14.98 3.72 16.96 1 19 C0.67 12.73 0.34 6.46 0 0 Z " fill="#6D98AC" transform="translate(299,261)"/>
<path d="M0 0 C0.99 0.33 1.98 0.66 3 1 C-0.507409 4.74210551 -3.95215381 7.44607891 -8.375 10.125 C-9.99535156 11.11886719 -9.99535156 11.11886719 -11.6484375 12.1328125 C-20.68707483 17.16832374 -20.68707483 17.16832374 -24.4375 16.6875 C-24.953125 16.460625 -25.46875 16.23375 -26 16 C-25.34 16 -24.68 16 -24 16 C-24 15.34 -24 14.68 -24 14 C-23.24976563 13.72027344 -22.49953125 13.44054687 -21.7265625 13.15234375 C-13.64219451 9.98579659 -6.19960647 6.19960647 0 0 Z " fill="#E3F1F5" transform="translate(340,317)"/>
<path d="M0 0 C0.99 0 1.98 0 3 0 C3 1.98 3 3.96 3 6 C4.32 6.66 5.64 7.32 7 8 C7 8.99 7 9.98 7 11 C7.66 11.33 8.32 11.66 9 12 C8.67 12.66 8.34 13.32 8 14 C3.01987239 12.49087042 -0.24259942 9.44338151 -4 6 C-2.1875 3 -2.1875 3 0 0 Z " fill="#A9C7D3" transform="translate(268,298)"/>
<path d="M0 0 C1.32 0.66 2.64 1.32 4 2 C0.35080799 8.72219581 -4.81453389 12.75507227 -11 17 C-10.814375 16.21625 -10.62875 15.4325 -10.4375 14.625 C-9.74037734 12.02910225 -9.74037734 12.02910225 -11 10 C-10.01 9.67 -9.02 9.34 -8 9 C-8 9.66 -8 10.32 -8 11 C-7.01 11 -6.02 11 -5 11 C-5.33 9.68 -5.66 8.36 -6 7 C-5.34 7 -4.68 7 -4 7 C-4 6.34 -4 5.68 -4 5 C-3.02149805 3.97895449 -2.02019573 2.9793879 -1 2 C-0.67 1.34 -0.34 0.68 0 0 Z " fill="#154157" transform="translate(325,274)"/>
<path d="M0 0 C1.62276158 2.43414237 2.61744792 4.31319446 3.625 7 C3.88539063 7.680625 4.14578125 8.36125 4.4140625 9.0625 C5 11 5 11 5 14 C1.7 13.34 -1.6 12.68 -5 12 C-4.01 11.67 -3.02 11.34 -2 11 C-2.33 8.36 -2.66 5.72 -3 3 C-2.01 2.67 -1.02 2.34 0 2 C0 1.34 0 0.68 0 0 Z " fill="#DDEAEB" transform="translate(322,168)"/>
<path d="M0 0 C0 3.13627349 -0.46624932 4.28532716 -1.875 7 C-2.22304687 7.680625 -2.57109375 8.36125 -2.9296875 9.0625 C-3.86683876 10.758949 -4.92494126 12.3874119 -6 14 C-6.66 13.34 -7.32 12.68 -8 12 C-8.66 12.66 -9.32 13.32 -10 14 C-10.99 14 -11.98 14 -13 14 C-10.38256198 8.10428565 -5.28256657 3.59214527 0 0 Z " fill="#90B4C1" transform="translate(169,153)"/>
<path d="M0 0 C0.66 0 1.32 0 2 0 C2.07476562 0.57105469 2.14953125 1.14210937 2.2265625 1.73046875 C3.31554862 8.44588314 5.65980884 14.02846292 8.66015625 20.1171875 C9.74936328 22.46072916 10.50708977 24.48068105 11 27 C10.34 27 9.68 27 9 27 C-0.55107527 8.8172043 -0.55107527 8.8172043 0 0 Z " fill="#CFE7EF" transform="translate(190,232)"/>
<path d="M0 0 C1.98 0 3.96 0 6 0 C7 3 7 3 7.4375 6.375 C7.93493922 9.58071941 8.66678852 12.06693474 10 15 C5.48815435 13.49605145 4.16567494 10.07176555 2 6 C0.6875 2.5 0.6875 2.5 0 0 Z " fill="#B5CFD8" transform="translate(134,304)"/>
<path d="M0 0 C0.66 0.33 1.32 0.66 2 1 C0.02 4.63 -1.96 8.26 -4 12 C-7.45397435 8.54602565 -8.56375905 7.30872286 -10 3 C-8.3603125 3.0928125 -8.3603125 3.0928125 -6.6875 3.1875 C-3.07873917 3.35597914 -3.07873917 3.35597914 -1.0625 1.5 C-0.711875 1.005 -0.36125 0.51 0 0 Z " fill="#A0C1CE" transform="translate(256,278)"/>
<path d="M0 0 C0.66 0.33 1.32 0.66 2 1 C1.67 1.66 1.34 2.32 1 3 C1.66 3.33 2.32 3.66 3 4 C2.34 4.66 1.68 5.32 1 6 C1.16666667 8.08333333 1.16666667 8.08333333 2 10 C2.66 10.33 3.32 10.66 4 11 C3.34 11 2.68 11 2 11 C1.67 11.66 1.34 12.32 1 13 C0.34 12.67 -0.32 12.34 -1 12 C-0.67 13.32 -0.34 14.64 0 16 C-0.66 16 -1.32 16 -2 16 C-2.33 11.05 -2.66 6.1 -3 1 C-2.01 0.67 -1.02 0.34 0 0 Z " fill="#608A9F" transform="translate(291,199)"/>
<path d="M0 0 C0.99 1.32 1.98 2.64 3 4 C-0.33333333 7.33333333 -3.66666667 10.66666667 -7 14 C-7 12.68 -7 11.36 -7 10 C-6.34 10 -5.68 10 -5 10 C-5.2475 9.443125 -5.495 8.88625 -5.75 8.3125 C-6 6 -6 6 -4.1875 3.3125 C-2 1 -2 1 0 0 Z " fill="#0D3852" transform="translate(195,140)"/>
<path d="M0 0 C0.99 0.33 1.98 0.66 3 1 C0.33333333 3.66666667 -2.33333333 6.33333333 -5 9 C-5.70125 9.721875 -6.4025 10.44375 -7.125 11.1875 C-8.99210629 12.99236942 -10.62748178 13.98320648 -13 15 C-13 12 -13 12 -11.5390625 10.17578125 C-10.59160156 9.25345703 -10.59160156 9.25345703 -9.625 8.3125 C-8.99851563 7.68988281 -8.37203125 7.06726563 -7.7265625 6.42578125 C-6 5 -6 5 -4 5 C-4 4.34 -4 3.68 -4 3 C-2.1875 1.3125 -2.1875 1.3125 0 0 Z " fill="#E3EFF3" transform="translate(160,208)"/>
<path d="M0 0 C-2.88087546 2.40072955 -5.56404834 4.47291037 -9 6 C-10.65 4.35 -12.3 2.7 -14 1 C-8.80451575 -1.20808081 -5.41735797 -0.93402724 0 0 Z " fill="#1F4457" transform="translate(259,220)"/>
<path d="M0 0 C0.66 0.99 1.32 1.98 2 3 C1.01 3.33 0.02 3.66 -1 4 C-1.33 4.99 -1.66 5.98 -2 7 C-2.66 7 -3.32 7 -4 7 C-4.226875 8.11375 -4.45375 9.2275 -4.6875 10.375 C-6 14 -6 14 -8.625 15.4375 C-9.40875 15.623125 -10.1925 15.80875 -11 16 C-10.50485982 11.65962225 -7.68886128 8.91387625 -4.9375 5.75 C-4.46505859 5.19570312 -3.99261719 4.64140625 -3.50585938 4.0703125 C-2.34341033 2.708251 -1.17252145 1.35340044 0 0 Z " fill="#89ACBB" transform="translate(221,165)"/>
<path d="M0 0 C2.4375 0.8125 2.4375 0.8125 5 2 C5.33 2.99 5.66 3.98 6 5 C7.65 5 9.3 5 11 5 C11.5534764 7.07553648 12 8.84365964 12 11 C12.66 11.66 13.32 12.32 14 13 C11 13 11 13 8.30078125 10.6640625 C7.29685338 9.65880492 6.3010225 8.64541032 5.3125 7.625 C4.80138672 7.11710937 4.29027344 6.60921875 3.76367188 6.0859375 C0 2.26699141 0 2.26699141 0 0 Z " fill="#0A2F41" transform="translate(139,344)"/>
<path d="M0 0 C0 0.66 0 1.32 0 2 C-5.47059581 3.84532714 -10.18819928 4.25309068 -15.9375 4.125 C-16.71673828 4.11597656 -17.49597656 4.10695313 -18.29882812 4.09765625 C-20.19935447 4.07433691 -22.09972008 4.03847586 -24 4 C-24 3.67 -24 3.34 -24 3 C-22.96359375 2.86722656 -21.9271875 2.73445313 -20.859375 2.59765625 C-19.48956735 2.41939361 -18.11977656 2.24100138 -16.75 2.0625 C-16.06808594 1.97548828 -15.38617188 1.88847656 -14.68359375 1.79882812 C-0.79146329 -0.02198509 -0.79146329 -0.02198509 0 0 Z " fill="#E4F5F8" transform="translate(221,332)"/>
<path d="M0 0 C5.87039235 0.29351962 9.85599229 3.02412626 14 7 C14.33 7.99 14.66 8.98 15 10 C9.02057593 7.88961503 4.30644123 4.63770594 0 0 Z " fill="#E7F5F8" transform="translate(216,205)"/>
<path d="M0 0 C-1.53643852 3.68069887 -3.78150945 5.98775204 -6.625 8.75 C-7.85089844 9.94882812 -7.85089844 9.94882812 -9.1015625 11.171875 C-9.72804688 11.77515625 -10.35453125 12.3784375 -11 13 C-11.609375 11.140625 -11.609375 11.140625 -12 9 C-10.25 6.75 -10.25 6.75 -8 5 C-7.01 5 -6.02 5 -5 5 C-4.814375 4.0409375 -4.814375 4.0409375 -4.625 3.0625 C-4.41875 2.381875 -4.2125 1.70125 -4 1 C-2 0 -2 0 0 0 Z " fill="#173D4D" transform="translate(361,346)"/>
<path d="M0 0 C0 3.92438172 -0.87706452 5.68291332 -3 9 C-5.49259088 11.00324788 -8.05283127 12.74229105 -11 14 C-11.66 13.67 -12.32 13.34 -13 13 C-8.71 8.71 -4.42 4.42 0 0 Z " fill="#2A4B5E" transform="translate(152,145)"/>
<path d="M0 0 C-0.33 0.99 -0.66 1.98 -1 3 C-2.9661226 3.23326878 -4.93225297 3.46647252 -6.8984375 3.69921875 C-9.13835425 3.9775641 -9.13835425 3.9775641 -11.8125 4.75 C-12.534375 4.8325 -13.25625 4.915 -14 5 C-15.63671875 3.515625 -15.63671875 3.515625 -17 2 C-5.47835991 -0.29612756 -5.47835991 -0.29612756 0 0 Z " fill="#1B3F51" transform="translate(203,210)"/>
<path d="M0 0 C0.66 0 1.32 0 2 0 C1.54979057 5.85272256 -1.03839227 10.08220119 -4 15 C-4.99 15 -5.98 15 -7 15 C-3.535 7.575 -3.535 7.575 0 0 Z " fill="#CFE7EE" transform="translate(270,287)"/>
<path d="M0 0 C0.78375 0.639375 1.5675 1.27875 2.375 1.9375 C4.79539281 3.98142313 4.79539281 3.98142313 7 5 C6.625 6.9375 6.625 6.9375 6 9 C5.01 9.495 5.01 9.495 4 10 C4 9.34 4 8.68 4 8 C2.68 8 1.36 8 0 8 C0 5.36 0 2.72 0 0 Z " fill="#BDD1D8" transform="translate(152,310)"/>
<path d="M0 0 C0.33 0.66 0.66 1.32 1 2 C1.66 2.33 2.32 2.66 3 3 C3.33 3.66 3.66 4.32 4 5 C4.99 5.66 5.98 6.32 7 7 C2.545 8.485 2.545 8.485 -2 10 C-1.34 6.7 -0.68 3.4 0 0 Z " fill="#CEE2E9" transform="translate(177,172)"/>
<path d="M0 0 C0.99 0.33 1.98 0.66 3 1 C2.71517632 2.41805831 2.42181856 3.83440379 2.125 5.25 C1.96257812 6.03890625 1.80015625 6.8278125 1.6328125 7.640625 C1.00849925 9.96831144 0.15161458 11.89031952 -1 14 C-1.66 13.67 -2.32 13.34 -3 13 C-2.47916667 11.01432292 -1.95833333 9.02864583 -1.4375 7.04296875 C-0.8952993 4.85929991 -0.8952993 4.85929991 -1 2 C-0.67 1.34 -0.34 0.68 0 0 Z " fill="#B4D1DD" transform="translate(371,285)"/>
<path d="M0 0 C1.98 0.66 3.96 1.32 6 2 C6 1.34 6 0.68 6 0 C6.66 0 7.32 0 8 0 C6.125 4.75 6.125 4.75 5 7 C3.35 6.67 1.7 6.34 0 6 C0 4.02 0 2.04 0 0 Z " fill="#CFE3E9" transform="translate(271,224)"/>
<path d="M0 0 C-1 3 -1 3 -3.9375 4.6875 C-7 6 -7 6 -9 6 C-9.33 7.32 -9.66 8.64 -10 10 C-11.32 10.33 -12.64 10.66 -14 11 C-13.83984375 9.234375 -13.83984375 9.234375 -13 7 C-10.56640625 5.078125 -10.56640625 5.078125 -7.5625 3.25 C-6.57378906 2.63640625 -5.58507812 2.0228125 -4.56640625 1.390625 C-2 0 -2 0 0 0 Z " fill="#DCE6EB" transform="translate(288,205)"/>
<path d="M0 0 C5.61 0 11.22 0 17 0 C16.01 1.485 16.01 1.485 15 3 C12.5390625 3.36328125 12.5390625 3.36328125 9.625 3.3125 C8.66851562 3.30863281 7.71203125 3.30476563 6.7265625 3.30078125 C4.00907193 3.00100077 2.32988821 2.38578659 0 1 C0 0.67 0 0.34 0 0 Z " fill="#DCEAED" transform="translate(191,334)"/>
<path d="M0 0 C0.66 0 1.32 0 2 0 C2.16435547 0.95712891 2.16435547 0.95712891 2.33203125 1.93359375 C2.49058594 2.75988281 2.64914063 3.58617187 2.8125 4.4375 C2.96332031 5.26121094 3.11414063 6.08492188 3.26953125 6.93359375 C3.51058594 7.61550781 3.75164062 8.29742187 4 9 C4.99 9.33 5.98 9.66 7 10 C7 11.65 7 13.3 7 15 C6.01 15.495 6.01 15.495 5 16 C4.34956281 14.27255984 3.70485156 12.5429631 3.0625 10.8125 C2.52302734 9.36810547 2.52302734 9.36810547 1.97265625 7.89453125 C1.08843438 5.2631722 0.47431414 2.73105092 0 0 Z " fill="#B2CEDA" transform="translate(128,287)"/>
<path d="M0 0 C1.37562854 1.28965176 2.70766393 2.62689293 4 4 C4 4.66 4 5.32 4 6 C1.69 6.66 -0.62 7.32 -3 8 C-3 6.35 -3 4.7 -3 3 C-2.34 3 -1.68 3 -1 3 C-0.67 2.01 -0.34 1.02 0 0 Z " fill="#E8F5F8" transform="translate(139,233)"/>
<path d="M0 0 C0.66 0.99 1.32 1.98 2 3 C1.175 3.78375 0.35 4.5675 -0.5 5.375 C-3.22988506 7.63721264 -3.22988506 7.63721264 -3 10 C-3.66 10 -4.32 10 -5 10 C-5.99 8.68 -6.98 7.36 -8 6 C-5.36 4.02 -2.72 2.04 0 0 Z " fill="#153A4F" transform="translate(167,133)"/>
<path d="M0 0 C1.67588141 2.51382212 2.94030311 4.82947288 4.1875 7.5625 C4.55230469 8.34753906 4.91710937 9.13257813 5.29296875 9.94140625 C5.52628906 10.62074219 5.75960937 11.30007813 6 12 C5.67 12.66 5.34 13.32 5 14 C4.01 13.67 3.02 13.34 2 13 C0.5946484 8.56204759 -0.29241839 4.67869431 0 0 Z " fill="#163A4B" transform="translate(160,284)"/>
<path d="M0 0 C2.64465038 3.1254959 3.84414715 6.08788267 5 10 C3.35 9.67 1.7 9.34 0 9 C-0.66 6.36 -1.32 3.72 -2 1 C-1.34 0.67 -0.68 0.34 0 0 Z " fill="#8AADBB" transform="translate(364,192)"/>
<path d="M0 0 C0.99 0.33 1.98 0.66 3 1 C2 3 1 5 0 7 C-1.65 7 -3.3 7 -5 7 C-3.70700306 4.11562221 -2.34058637 2.12780579 0 0 Z " fill="#1E4052" transform="translate(330,302)"/>
<path d="M0 0 C0.33 0 0.66 0 1 0 C0.5547115 5.27315333 -0.08373163 10.01770224 -2 15 C-4 12 -4 12 -4 9 C-3.38705781 7.4156539 -2.71471883 5.85361248 -2 4.3125 C-1.62875 3.50425781 -1.2575 2.69601562 -0.875 1.86328125 C-0.58625 1.24839844 -0.2975 0.63351562 0 0 Z " fill="#ADCCD7" transform="translate(286,281)"/>
<path d="M0 0 C0.33 0 0.66 0 1 0 C1.22262606 2.08185451 1.42757926 4.16560426 1.625 6.25 C1.74101562 7.41015625 1.85703125 8.5703125 1.9765625 9.765625 C2 13 2 13 0 17 C0 14.03 0 11.06 0 8 C-0.99 8.33 -1.98 8.66 -3 9 C-3 8.01 -3 7.02 -3 6 C-2.34 6 -1.68 6 -1 6 C-0.67 4.02 -0.34 2.04 0 0 Z " fill="#D1E4ED" transform="translate(373,269)"/>
<path d="M0 0 C1.32 0.33 2.64 0.66 4 1 C3.67 1.66 3.34 2.32 3 3 C2.93003986 4.70702735 2.91559846 6.41668003 2.9375 8.125 C2.95103516 9.49011719 2.95103516 9.49011719 2.96484375 10.8828125 C2.97644531 11.58148438 2.98804688 12.28015625 3 13 C2.01 13 1.02 13 0 13 C0 8.71 0 4.42 0 0 Z " fill="#6F96A7" transform="translate(200,197)"/>
<path d="M0 0 C1.828125 0.18359375 1.828125 0.18359375 4 1 C5.484375 3.28515625 5.484375 3.28515625 6.75 6.0625 C7.17796875 6.98160156 7.6059375 7.90070313 8.046875 8.84765625 C8.36140625 9.55792969 8.6759375 10.26820313 9 11 C8.01 11.495 8.01 11.495 7 12 C5.83061933 10.18924982 4.66456267 8.37635257 3.5 6.5625 C2.8503125 5.55316406 2.200625 4.54382813 1.53125 3.50390625 C0 1 0 1 0 0 Z " fill="#1A404E" transform="translate(120,319)"/>
<path d="M0 0 C0.99 0.33 1.98 0.66 3 1 C-0.11016455 4.28788824 -3.01618925 6.83735988 -7 9 C-7.66 8.34 -8.32 7.68 -9 7 C-8.43410156 6.57847656 -7.86820312 6.15695312 -7.28515625 5.72265625 C-6.55167969 5.17480469 -5.81820313 4.62695312 -5.0625 4.0625 C-4.33160156 3.51722656 -3.60070312 2.97195313 -2.84765625 2.41015625 C-1.0865547 1.13092062 -1.0865547 1.13092062 0 0 Z " fill="#D8EBF1" transform="translate(340,317)"/>
<path d="M0 0 C0.66 0 1.32 0 2 0 C3.00508801 1.78881736 4.00392736 3.58114696 5 5.375 C5.8353125 6.87160156 5.8353125 6.87160156 6.6875 8.3984375 C8 11 8 11 8 13 C7.01 12.67 6.02 12.34 5 12 C5 10.68 5 9.36 5 8 C4.01 7.67 3.02 7.34 2 7 C2 5.68 2 4.36 2 3 C1.01 2.67 0.02 2.34 -1 2 C-0.67 1.34 -0.34 0.68 0 0 Z " fill="#1F3F51" transform="translate(375,178)"/>
<path d="M0 0 C0.33 0 0.66 0 1 0 C1 1.65 1 3.3 1 5 C0.01 5.33 -0.98 5.66 -2 6 C-2 7.65 -2 9.3 -2 11 C-3.98 11.99 -3.98 11.99 -6 13 C-4.58707905 8.1725201 -2.57025846 4.2837641 0 0 Z " fill="#1F4250" transform="translate(123,181)"/>
<path d="M0 0 C0.99 0 1.98 0 3 0 C3.433125 1.093125 3.86625 2.18625 4.3125 3.3125 C5.49495641 6.09408793 6.60800043 8.06361939 9 10 C7.35 10 5.7 10 4 10 C2.68 6.7 1.36 3.4 0 0 Z " fill="#D0E4EC" transform="translate(305,169)"/>
<path d="M0 0 C1.41750563 0.11509661 2.83401169 0.24253658 4.25 0.375 C5.03890625 0.44460938 5.8278125 0.51421875 6.640625 0.5859375 C9.085877 1.01507113 10.84836903 1.78600638 13 3 C13 3.66 13 4.32 13 5 C11.20620902 4.55005243 9.41501072 4.08975857 7.625 3.625 C6.62726563 3.36976563 5.62953125 3.11453125 4.6015625 2.8515625 C2 2 2 2 0 0 Z " fill="#E5F4F9" transform="translate(179,331)"/>
<path d="M0 0 C1.32 0.33 2.64 0.66 4 1 C4 1.99 4 2.98 4 4 C2.25 5.75 2.25 5.75 0 7 C-2.25 6.6875 -2.25 6.6875 -4 6 C-2.68 4.02 -1.36 2.04 0 0 Z " fill="#CBE1E6" transform="translate(352,301)"/>
<path d="M0 0 C2.475 0.495 2.475 0.495 5 1 C4.67 3.64 4.34 6.28 4 9 C1.49701566 6.06171403 0.53069061 3.82097239 0 0 Z " fill="#A7C5D0" transform="translate(218,294)"/>
<path d="M0 0 C-1 3 -1 3 -3.9375 4.625 C-4.948125 5.07875 -5.95875 5.5325 -7 6 C-7.99 6.495 -7.99 6.495 -9 7 C-9 6.34 -9 5.68 -9 5 C-9.66 4.67 -10.32 4.34 -11 4 C-9.73308493 3.32591692 -8.46129251 2.66099503 -7.1875 2 C-6.47980469 1.62875 -5.77210938 1.2575 -5.04296875 0.875 C-3 0 -3 0 0 0 Z " fill="#143748" transform="translate(186,213)"/>
<path d="M0 0 C0.33 0 0.66 0 1 0 C1.06058594 0.73605469 1.12117187 1.47210938 1.18359375 2.23046875 C1.26738281 3.20628906 1.35117188 4.18210937 1.4375 5.1875 C1.51871094 6.15042969 1.59992188 7.11335938 1.68359375 8.10546875 C1.97666151 10.78649602 2.42703754 13.3662986 3 16 C2.01 16.33 1.02 16.66 0 17 C0 11.39 0 5.78 0 0 Z " fill="#B4D1DA" transform="translate(244,261)"/>
<path d="M0 0 C0.33 0.66 0.66 1.32 1 2 C0.06421005 4.35981813 -0.93347808 6.69631264 -2 9 C-2.66 9 -3.32 9 -4 9 C-5.625 6.5 -5.625 6.5 -7 4 C-5.02 3.67 -3.04 3.34 -1 3 C-0.67 2.01 -0.34 1.02 0 0 Z " fill="#A5C8D5" transform="translate(197,264)"/>
<path d="M0 0 C3.33511388 2.9901021 5.21521119 5.89498574 7 10 C7 10.66 7 11.32 7 12 C6.01 12 5.02 12 4 12 C2.66666667 8 1.33333333 4 0 0 Z " fill="#20404F" transform="translate(348,238)"/>
<path d="M0 0 C2.79872437 2.52788007 4.45773019 4.20411134 5 8 C2.5625 7.3125 2.5625 7.3125 0 6 C-0.875 3.4375 -0.875 3.4375 -1 1 C-0.67 0.67 -0.34 0.34 0 0 Z " fill="#E1EFF4" transform="translate(317,160)"/>
<path d="M0 0 C1.875 0.1875 1.875 0.1875 4 1 C5.25 3.5625 5.25 3.5625 6 6 C4.35 5.67 2.7 5.34 1 5 C0.67 3.35 0.34 1.7 0 0 Z " fill="#193F51" transform="translate(352,150)"/>
<path d="M0 0 C1.32 0.33 2.64 0.66 4 1 C4 2.65 4 4.3 4 6 C2.68 6 1.36 6 0 6 C-0.66 4.68 -1.32 3.36 -2 2 C-1.34 2 -0.68 2 0 2 C0 1.34 0 0.68 0 0 Z " fill="#ACC9D4" transform="translate(186,258)"/>
<path d="M0 0 C0.66 0 1.32 0 2 0 C3.25664978 2.90600261 4 4.79604584 4 8 C2.68 8.99 1.36 9.98 0 11 C0 7.37 0 3.74 0 0 Z " fill="#DAE7EA" transform="translate(368,243)"/>
<path d="M0 0 C2.375 0.1875 2.375 0.1875 5 1 C6.3125 3.5625 6.3125 3.5625 7 6 C4 6 4 6 1.8125 4.125 C0 2 0 2 0 0 Z " fill="#092E3E" transform="translate(353,217)"/>
<path d="M0 0 C2.31 1.98 4.62 3.96 7 6 C6.67 6.66 6.34 7.32 6 8 C5.34 8 4.68 8 4 8 C4 7.34 4 6.68 4 6 C1.88214887 4.88214887 1.88214887 4.88214887 -1 4 C-0.67 2.68 -0.34 1.36 0 0 Z " fill="#BCCFD4" transform="translate(243,311)"/>
<path d="M0 0 C1.32 0 2.64 0 4 0 C4 1.98 4 3.96 4 6 C2.02 6.33 0.04 6.66 -2 7 C-1.484375 6.21625 -0.96875 5.4325 -0.4375 4.625 C0.036875 3.75875 0.51125 2.8925 1 2 C0.67 1.34 0.34 0.68 0 0 Z " fill="#D1E1E8" transform="translate(227,224)"/>
<path d="M0 0 C2 3 2 3 1.625 5.1875 C1.41875 5.785625 1.2125 6.38375 1 7 C-1.4375 6.25 -1.4375 6.25 -4 5 C-4.8125 2.875 -4.8125 2.875 -5 1 C-3.68 1.33 -2.36 1.66 -1 2 C-0.67 1.34 -0.34 0.68 0 0 Z " fill="#588EA6" transform="translate(209,207)"/>
<path d="M0 0 C2.64 1.98 5.28 3.96 8 6 C7.01 6.495 7.01 6.495 6 7 C6 7.66 6 8.32 6 9 C5.34 9 4.68 9 4 9 C0 2.25 0 2.25 0 0 Z " fill="#81A8BA" transform="translate(332,153)"/>
<path d="M0 0 C0 3.69418201 -1.28179295 5.77836178 -3 9 C-4.32 8.67 -5.64 8.34 -7 8 C-5.50902342 4.2047869 -3.24299151 2.38957269 0 0 Z " fill="#7FAABC" transform="translate(169,153)"/>
<path d="M0 0 C0.66 0 1.32 0 2 0 C1.43454163 3.95820859 0.19097652 6.6659053 -2 10 C-2.66 9.67 -3.32 9.34 -4 9 C-2.68 6.03 -1.36 3.06 0 0 Z " fill="#A7C8D5" transform="translate(280,298)"/>
<path d="M0 0 C0.66 0 1.32 0 2 0 C2 1.98 2 3.96 2 6 C0.35 6.66 -1.3 7.32 -3 8 C-2.45276317 4.62537285 -1.9451 2.91765 0 0 Z " fill="#EFF4F6" transform="translate(362,233)"/>
<path d="M0 0 C7.75 0.75 7.75 0.75 10 3 C10.33 3.99 10.66 4.98 11 6 C7.2089881 4.55049545 3.6125362 2.84827434 0 1 C0 0.67 0 0.34 0 0 Z " fill="#204153" transform="translate(284,130)"/>
<path d="M0 0 C0.66 0.66 1.32 1.32 2 2 C0.02 4.31 -1.96 6.62 -4 9 C-4.66 8.34 -5.32 7.68 -6 7 C-5.34 6.01 -4.68 5.02 -4 4 C-3.34 4 -2.68 4 -2 4 C-1.34 2.68 -0.68 1.36 0 0 Z " fill="#1E4354" transform="translate(367,337)"/>
<path d="M0 0 C0.66 0 1.32 0 2 0 C0.50164772 4.66154042 -2.88463591 5.86610751 -7 8 C-6.67 6.68 -6.34 5.36 -6 4 C-4.35 3.67 -2.7 3.34 -1 3 C-0.67 2.01 -0.34 1.02 0 0 Z " fill="#9FC2D0" transform="translate(344,331)"/>
<path d="M0 0 C0.33 0.99 0.66 1.98 1 3 C0.01 3 -0.98 3 -2 3 C-2 3.66 -2 4.32 -2 5 C-2.66 5 -3.32 5 -4 5 C-4 5.66 -4 6.32 -4 7 C-6 6 -6 6 -7 3 C-4.69 2.01 -2.38 1.02 0 0 Z " fill="#173A4F" transform="translate(318,312)"/>
<path d="M0 0 C0.66 0.33 1.32 0.66 2 1 C1.34 2.65 0.68 4.3 0 6 C-0.66 6 -1.32 6 -2 6 C-2.33 7.32 -2.66 8.64 -3 10 C-3.29296875 3.9453125 -3.29296875 3.9453125 -3 2 C-2.01 1.34 -1.02 0.68 0 0 Z " fill="#5F8B9F" transform="translate(180,234)"/>
<path d="M0 0 C3 1.8125 3 1.8125 6 4 C6 4.99 6 5.98 6 7 C4.35 6.67 2.7 6.34 1 6 C1.33 5.01 1.66 4.02 2 3 C1.34 3 0.68 3 0 3 C0 2.01 0 1.02 0 0 Z " fill="#183F52" transform="translate(338,136)"/>
<path d="M0 0 C0.66 0 1.32 0 2 0 C2 0.66 2 1.32 2 2 C3.65 2.33 5.3 2.66 7 3 C6.67 3.99 6.34 4.98 6 6 C3.69 5.01 1.38 4.02 -1 3 C-0.67 2.01 -0.34 1.02 0 0 Z " fill="#1D4152" transform="translate(183,377)"/>
<path d="M0 0 C1.8125 0.1875 1.8125 0.1875 4 1 C7 5.17857143 7 5.17857143 7 8 C2.60841671 6.5361389 2.12052567 4.02168662 0 0 Z " fill="#A9C8D5" transform="translate(137,311)"/>
<path d="M0 0 C0.99 0 1.98 0 3 0 C2.67 1.32 2.34 2.64 2 4 C1.34 4 0.68 4 0 4 C0 4.99 0 5.98 0 7 C-1.32 6.67 -2.64 6.34 -4 6 C-2.1875 3 -2.1875 3 0 0 Z " fill="#B9CFD6" transform="translate(268,298)"/>
<path d="M0 0 C0.66 0 1.32 0 2 0 C2.125 6.75 2.125 6.75 1 9 C0.34 9 -0.32 9 -1 9 C-0.67 6.03 -0.34 3.06 0 0 Z " fill="#CBE2EC" transform="translate(310,231)"/>
<path d="M0 0 C0.33 0.66 0.66 1.32 1 2 C-0.65 3.65 -2.3 5.3 -4 7 C-4.66 6.67 -5.32 6.34 -6 6 C-4.95125002 3.37812506 -4.35068687 2.20628639 -1.875 0.75 C-1.25625 0.5025 -0.6375 0.255 0 0 Z " fill="#12374B" transform="translate(272,230)"/>
<path d="M0 0 C0 3.99476331 -1.28869085 5.1421336 -4 8 C-6.75 9.3125 -6.75 9.3125 -9 10 C-8.06409496 8.8944811 -7.12620142 7.79064547 -6.1875 6.6875 C-5.66542969 6.07261719 -5.14335937 5.45773438 -4.60546875 4.82421875 C-3.12827531 3.14575321 -1.59960869 1.56117966 0 0 Z " fill="#153F52" transform="translate(144,198)"/>
<path d="M0 0 C5.875 3.75 5.875 3.75 7 6 C5.35 6.33 3.7 6.66 2 7 C1.34 4.69 0.68 2.38 0 0 Z " fill="#E2F2F7" transform="translate(274,161)"/>
<path d="M0 0 C0.33 0.99 0.66 1.98 1 3 C-0.97420135 5.52259061 -1.96745642 5.9929808 -5.1875 6.6875 C-6.5796875 6.8421875 -6.5796875 6.8421875 -8 7 C-5.4837822 4.39391727 -2.94865641 2.10618315 0 0 Z " fill="#1D3F52" transform="translate(177,126)"/>
<path d="M0 0 C2.31 0 4.62 0 7 0 C7.66 1.98 8.32 3.96 9 6 C6.03 4.35 3.06 2.7 0 1 C0 0.67 0 0.34 0 0 Z " fill="#204151" transform="translate(169,371)"/>
<path d="M0 0 C0.99 0.33 1.98 0.66 3 1 C0.525 4.465 0.525 4.465 -2 8 C-2.33 7.01 -2.66 6.02 -3 5 C-1.5625 2.3125 -1.5625 2.3125 0 0 Z " fill="#153A4C" transform="translate(337,293)"/>
<path d="M0 0 C1.04184255 3.38598829 1.23042499 6.46681687 1 10 C0.34 10.66 -0.32 11.32 -1 12 C-1.92470553 7.28400182 -2.22923777 4.32734391 0 0 Z " fill="#D2E8ED" transform="translate(131,246)"/>
<path d="M0 0 C0.99 0.33 1.98 0.66 3 1 C0.9859524 4.0210714 -0.63279613 5.60667426 -4 7 C-4 4 -4 4 -2 1.8125 C-1.34 1.214375 -0.68 0.61625 0 0 Z " fill="#E8F8FC" transform="translate(151,216)"/>
<path d="M0 0 C2.475 0.99 2.475 0.99 5 2 C4.1875 3.9375 4.1875 3.9375 3 6 C2.01 6.33 1.02 6.66 0 7 C0 4.69 0 2.38 0 0 Z " fill="#D9ECF0" transform="translate(214,202)"/>
<path d="M0 0 C3.125 0.375 3.125 0.375 6 1 C6.33 1.99 6.66 2.98 7 4 C2.545 3.01 2.545 3.01 -2 2 C-1.34 1.34 -0.68 0.68 0 0 Z " fill="#284756" transform="translate(273,124)"/>
<path d="M0 0 C6.875 3.75 6.875 3.75 8 6 C1.25 4.375 1.25 4.375 -1 1 C-0.67 0.67 -0.34 0.34 0 0 Z " fill="#BECFD6" transform="translate(163,322)"/>
<path d="M0 0 C2.99529289 0.99843096 4.15840327 1.51384442 6 4 C5.578125 6.10546875 5.578125 6.10546875 5 8 C4.16382818 6.8562364 3.33113541 5.70992861 2.5 4.5625 C2.0359375 3.92441406 1.571875 3.28632813 1.09375 2.62890625 C0 1 0 1 0 0 Z " fill="#9FC0CE" transform="translate(225,308)"/>
<path d="M0 0 C0.66 0 1.32 0 2 0 C5 4.38461538 5 4.38461538 5 7 C4.01 7.33 3.02 7.66 2 8 C0 2.25 0 2.25 0 0 Z " fill="#C3D3D7" transform="translate(145,299)"/>
<path d="M0 0 C0.66 0.33 1.32 0.66 2 1 C0.68775452 4.93673644 -0.91910327 7.22719294 -4 10 C-2.8905928 6.51329166 -1.73662334 3.22515763 0 0 Z " fill="#C6E0E8" transform="translate(304,250)"/>
<path d="M0 0 C1 2 1 2 0.44140625 3.9453125 C0.15136719 4.66460937 -0.13867188 5.38390625 -0.4375 6.125 C-0.72496094 6.84945312 -1.01242188 7.57390625 -1.30859375 8.3203125 C-1.53675781 8.87460938 -1.76492187 9.42890625 -2 10 C-2.66 10 -3.32 10 -4 10 C-3.43454163 6.04179141 -2.19097652 3.3340947 0 0 Z " fill="#0C2B3C" transform="translate(151,241)"/>
<path d="M0 0 C1.98 0.99 3.96 1.98 6 3 C3.42786866 4.61949011 2.32330841 5.04408751 -0.75 4.625 C-1.4925 4.41875 -2.235 4.2125 -3 4 C-2.34 3.34 -1.68 2.68 -1 2 C-0.67 1.34 -0.34 0.68 0 0 Z " fill="#D8E7EC" transform="translate(230,212)"/>
<path d="M0 0 C2.02045442 0.60183749 4.02111039 1.27306096 6 2 C6.33 2.66 6.66 3.32 7 4 C5.25 4.75 5.25 4.75 3 5 C0.75 3.0625 0.75 3.0625 -1 1 C-0.67 0.67 -0.34 0.34 0 0 Z " fill="#83ABBB" transform="translate(246,196)"/>
<path d="M0 0 C1.98 0.495 1.98 0.495 4 1 C3.34 2.65 2.68 4.3 2 6 C1.01 6 0.02 6 -1 6 C-0.67 4.02 -0.34 2.04 0 0 Z " fill="#E2EEF4" transform="translate(179,168)"/>
<path d="M0 0 C0.99 0.33 1.98 0.66 3 1 C-0.96 4.465 -0.96 4.465 -5 8 C-5.66 7.67 -6.32 7.34 -7 7 C-4.69 4.69 -2.38 2.38 0 0 Z " fill="#E0F3F7" transform="translate(203,138)"/>
<path d="M0 0 C0.66 0.33 1.32 0.66 2 1 C0.63016497 4.16115776 0.0109362 4.9927092 -3 7 C-2.25 2.25 -2.25 2.25 0 0 Z " fill="#1D4456" transform="translate(352,352)"/>
<path d="M0 0 C0.66 0 1.32 0 2 0 C2 0.66 2 1.32 2 2 C3.32 2.66 4.64 3.32 6 4 C5.67 4.66 5.34 5.32 5 6 C1.535 4.02 1.535 4.02 -2 2 C-1.34 1.34 -0.68 0.68 0 0 Z " fill="#1A3C4C" transform="translate(171,322)"/>
<path d="M0 0 C0.33 0.99 0.66 1.98 1 3 C-0.32 4.32 -1.64 5.64 -3 7 C-3.66 6.34 -4.32 5.68 -5 5 C-4.67 4.01 -4.34 3.02 -4 2 C-3.01 2 -2.02 2 -1 2 C-0.67 1.34 -0.34 0.68 0 0 Z " fill="#C5DDE3" transform="translate(358,294)"/>
<path d="M0 0 C0.99 0.66 1.98 1.32 3 2 C1.35 3.32 -0.3 4.64 -2 6 C-2.66 5.34 -3.32 4.68 -4 4 C-2.68 2.68 -1.36 1.36 0 0 Z " fill="#1C3C51" transform="translate(162,226)"/>
<path d="M0 0 C-1.22934015 3.68802044 -2.93859378 4.72356973 -6 7 C-6.66 6.67 -7.32 6.34 -8 6 C-3.38461538 0 -3.38461538 0 0 0 Z " fill="#E8F6F9" transform="translate(265,217)"/>
<path d="M0 0 C3.0831351 1.19899698 6.06279492 2.47700477 9 4 C5.71023192 5.09658936 4.28696233 4.79953138 1 4 C0.67 2.68 0.34 1.36 0 0 Z " fill="#DAE4E8" transform="translate(236,220)"/>
<path d="M0 0 C2 2 2 2 2 5 C-1.3 4.34 -4.6 3.68 -8 3 C-8 2.67 -8 2.34 -8 2 C-5.36 2 -2.72 2 0 2 C0 1.34 0 0.68 0 0 Z " fill="#B9D2DB" transform="translate(325,177)"/>
<path d="M0 0 C0.66 0 1.32 0 2 0 C0.25 5.75 0.25 5.75 -2 8 C-2.6875 6.25 -2.6875 6.25 -3 4 C-1.6875 1.75 -1.6875 1.75 0 0 Z " fill="#D7E6E9" transform="translate(197,164)"/>
<path d="M0 0 C-0.99897713 2.99693138 -1.65130253 4.02709413 -4 6 C-4.66 6 -5.32 6 -6 6 C-6.33 5.01 -6.66 4.02 -7 3 C-2.25 0 -2.25 0 0 0 Z " fill="#17394A" transform="translate(225,143)"/>
<path d="M0 0 C1.65 0.99 3.3 1.98 5 3 C3.625 4.5 3.625 4.5 2 6 C1.34 6 0.68 6 0 6 C0 4.02 0 2.04 0 0 Z " fill="#113B52" transform="translate(251,335)"/>
<path d="M0 0 C0.33 1.65 0.66 3.3 1 5 C0.01 5 -0.98 5 -2 5 C-2.66 3.68 -3.32 2.36 -4 1 C-2 0 -2 0 0 0 Z " fill="#173A4C" transform="translate(139,339)"/>
<path d="M0 0 C0.94875 0.350625 1.8975 0.70125 2.875 1.0625 C0.875 3.0625 0.875 3.0625 -2.75 3.1875 C-3.86375 3.14625 -4.9775 3.105 -6.125 3.0625 C-5.795 2.0725 -5.465 1.0825 -5.125 0.0625 C-3.125 -0.9375 -3.125 -0.9375 0 0 Z " fill="#1B3E53" transform="translate(220.125,329.9375)"/>
<path d="M0 0 C0.66 0 1.32 0 2 0 C0.8141763 3.37503669 -0.27573689 5.64722731 -3 8 C-3.66 7.67 -4.32 7.34 -5 7 C-4.21654285 5.82780457 -3.42297164 4.66236332 -2.625 3.5 C-2.18414062 2.8503125 -1.74328125 2.200625 -1.2890625 1.53125 C-0.65097656 0.77328125 -0.65097656 0.77328125 0 0 Z " fill="#113A4D" transform="translate(363,313)"/>
<path d="M0 0 C0.598125 0.20625 1.19625 0.4125 1.8125 0.625 C0.636875 1.2746875 0.636875 1.2746875 -0.5625 1.9375 C-3.40448375 3.51720247 -3.40448375 3.51720247 -5.1875 6.625 C-5.375 4.25 -5.375 4.25 -5.1875 1.625 C-2.1875 -0.375 -2.1875 -0.375 0 0 Z " fill="#264B5B" transform="translate(302.1875,297.375)"/>
<path d="M0 0 C0.66 0.33 1.32 0.66 2 1 C0.8125 3.5 0.8125 3.5 -1 6 C-3.6875 6.3125 -3.6875 6.3125 -6 6 C-4 4 -2 2 0 0 Z " fill="#AAC9D4" transform="translate(256,278)"/>
<path d="M0 0 C1.80411967 2.75924185 2.0127245 3.88972103 1.625 7.25 C1.41875 8.1575 1.2125 9.065 1 10 C0.67 10 0.34 10 0 10 C-1.125 2.25 -1.125 2.25 0 0 Z " fill="#1E3D4E" transform="translate(357,257)"/>
<path d="" fill="#FFFFFF" transform="translate(0,0)"/>
<path d="" fill="#FFFFFF" transform="translate(0,0)"/>
<path d="" fill="#FFFFFF" transform="translate(0,0)"/>
<path d="" fill="#FFFFFF" transform="translate(0,0)"/>
<path d="" fill="#FFFFFF" transform="translate(0,0)"/>
<path d="" fill="#FFFFFF" transform="translate(0,0)"/>
<path d="" fill="#FFFFFF" transform="translate(0,0)"/>
<path d="" fill="#FFFFFF" transform="translate(0,0)"/>
<path d="" fill="#FFFFFF" transform="translate(0,0)"/>
<path d="" fill="#FFFFFF" transform="translate(0,0)"/>
<path d="" fill="#FFFFFF" transform="translate(0,0)"/>
<path d="" fill="#FFFFFF" transform="translate(0,0)"/>
<path d="" fill="#FFFFFF" transform="translate(0,0)"/>
<path d="" fill="#FFFFFF" transform="translate(0,0)"/>
<path d="" fill="#FFFFFF" transform="translate(0,0)"/>
<path d="" fill="#FFFFFF" transform="translate(0,0)"/>
<path d="" fill="#FFFFFF" transform="translate(0,0)"/>
<path d="" fill="#FFFFFF" transform="translate(0,0)"/>
<path d="" fill="#FFFFFF" transform="translate(0,0)"/>
<path d="" fill="#FFFFFF" transform="translate(0,0)"/>
<path d="" fill="#FFFFFF" transform="translate(0,0)"/>
<path d="" fill="#FFFFFF" transform="translate(0,0)"/>
<path d="" fill="#FFFFFF" transform="translate(0,0)"/>
<path d="" fill="#FFFFFF" transform="translate(0,0)"/>
<path d="" fill="#FFFFFF" transform="translate(0,0)"/>
<path d="" fill="#FFFFFF" transform="translate(0,0)"/>
<path d="" fill="#FFFFFF" transform="translate(0,0)"/>
<path d="" fill="#FFFFFF" transform="translate(0,0)"/>
<path d="" fill="#FFFFFF" transform="translate(0,0)"/>
<path d="" fill="#FFFFFF" transform="translate(0,0)"/>
<path d="" fill="#FFFFFF" transform="translate(0,0)"/>
<path d="" fill="#FFFFFF" transform="translate(0,0)"/>
<path d="" fill="#FFFFFF" transform="translate(0,0)"/>
<path d="" fill="#FFFFFF" transform="translate(0,0)"/>
<path d="" fill="#FFFFFF" transform="translate(0,0)"/>
<path d="" fill="#FFFFFF" transform="translate(0,0)"/>
<path d="" fill="#FFFFFF" transform="translate(0,0)"/>
<path d="" fill="#FFFFFF" transform="translate(0,0)"/>
<path d="" fill="#FFFFFF" transform="translate(0,0)"/>
<path d="" fill="#FFFFFF" transform="translate(0,0)"/>
<path d="" fill="#FFFFFF" transform="translate(0,0)"/>
<path d="" fill="#FFFFFF" transform="translate(0,0)"/>
<path d="" fill="#FFFFFF" transform="translate(0,0)"/>
<path d="" fill="#FFFFFF" transform="translate(0,0)"/>
<path d="" fill="#FFFFFF" transform="translate(0,0)"/>
<path d="" fill="#FFFFFF" transform="translate(0,0)"/>
<path d="" fill="#FFFFFF" transform="translate(0,0)"/>
<path d="" fill="#FFFFFF" transform="translate(0,0)"/>
<path d="" fill="#FFFFFF" transform="translate(0,0)"/>
<path d="" fill="#FFFFFF" transform="translate(0,0)"/>
<path d="" fill="#FFFFFF" transform="translate(0,0)"/>
<path d="" fill="#FFFFFF" transform="translate(0,0)"/>
<path d="" fill="#FFFFFF" transform="translate(0,0)"/>
<path d="" fill="#FFFFFF" transform="translate(0,0)"/>
<path d="" fill="#FFFFFF" transform="translate(0,0)"/>
<path d="" fill="#FFFFFF" transform="translate(0,0)"/>
<path d="" fill="#FFFFFF" transform="translate(0,0)"/>
<path d="" fill="#FFFFFF" transform="translate(0,0)"/>
<path d="" fill="#FFFFFF" transform="translate(0,0)"/>
<path d="" fill="#FFFFFF" transform="translate(0,0)"/>
<path d="" fill="#FFFFFF" transform="translate(0,0)"/>
<path d="" fill="#FFFFFF" transform="translate(0,0)"/>
<path d="" fill="#FFFFFF" transform="translate(0,0)"/>
<path d="" fill="#FFFFFF" transform="translate(0,0)"/>
<path d="" fill="#FFFFFF" transform="translate(0,0)"/>
<path d="" fill="#FFFFFF" transform="translate(0,0)"/>
<path d="" fill="#FFFFFF" transform="translate(0,0)"/>
<path d="" fill="#FFFFFF" transform="translate(0,0)"/>
<path d="" fill="#FFFFFF" transform="translate(0,0)"/>
<path d="" fill="#FFFFFF" transform="translate(0,0)"/>
<path d="" fill="#FFFFFF" transform="translate(0,0)"/>
</svg>
